<svg xmlns="http://www.w3.org/2000/svg" width="20" height="24" viewBox="0 0 20 24">
    <path fill="#A1A8CF" fill-rule="nonzero" d="M12.58 15.181c-.437.734-1.027.892-1.771.473-.744-.412-1.49-.412-2.234 0-.744.42-1.333.261-1.771-.473-.438-.732-1.082-1.107-1.936-1.117-.852-.01-1.285-.446-1.297-1.301-.013-.852-.385-1.496-1.117-1.932-.735-.437-.895-1.027-.475-1.773.418-.744.418-1.488 0-2.234-.42-.745-.259-1.332.475-1.77.732-.44 1.103-1.082 1.117-1.938.012-.852.445-1.287 1.297-1.297.853-.011 1.498-.384 1.935-1.117C7.241-.032 7.83-.19 8.575.227c.744.416 1.49.416 2.234 0 .744-.418 1.333-.259 1.771.475.438.732 1.082 1.105 1.936 1.117.854.01 1.285.445 1.299 1.297.011.856.383 1.499 1.115 1.938.735.438.893 1.026.475 1.77-.416.746-.416 1.49 0 2.234.418.746.259 1.335-.475 1.773-.732.436-1.103 1.08-1.115 1.932-.014.856-.445 1.291-1.299 1.301-.854.01-1.498.385-1.936 1.117zm-2.886-2.567a4.673 4.673 0 1 0-.002-9.346 4.673 4.673 0 0 0 .002 9.346zm-4.901 2.135c2.071.045 1.403 1.742 3.082 1.784 0-.045-3.24 6.715-3.24 6.715l-1.555-2.34-2.812.316 3.507-6.893s.12.418 1.018.418zm10.77-.148l3.551 6.622-2.766-.361-.973 2.52-3.955-6.805s.842.141 1.516-.578c.586-.494.065-1.13 2.627-1.398zM10.67 6.909l2.19.32-1.582 1.543.373 2.182-1.959-1.029-1.959 1.029.373-2.182-1.582-1.543 2.189-.32.979-1.98.978 1.98z"/>
</svg>
