<svg xmlns="http://www.w3.org/2000/svg" width="24" height="20" viewBox="0 0 24 20">
    <path fill="#323D71" fill-rule="evenodd" d="M11.976 6.403c.627-.008 1-.364.998-.95-.003-.564-.337-.98-.97-.967-.627.014-1.06.295-1.038.992.021.63.381.931 1.01.925m1.026 6.763c0-1.037.006-2.073-.002-3.11-.005-.7-.308-1.18-1.06-1.186-.736-.006-.989.472-.989 1.14 0 2.102.005 4.204-.005 6.307-.004.7.389 1.07 1.012 1.173.543.09 1.034-.51 1.043-1.214.012-1.036.003-2.073.001-3.11m-9.764 1.15h-.006c0 .432-.021.865.004 1.296.118 2.105 2.115 4.066 4.09 4.08.685.004 1.163-.243 1.206-.923.042-.667-.333-.998-1.065-1.06-1.443-.124-2.154-.947-2.2-2.377-.018-.547-.067-1.097-.03-1.642.088-1.3-.234-2.437-1.11-3.43-.13-.15-.104-.613.032-.79.75-.972 1.194-2.014 1.09-3.269-.047-.573-.017-1.153-.003-1.729.035-1.454.874-2.368 2.344-2.462.742-.047.956-.484.938-1.08C8.511.325 8.137.009 7.504.023 5.876.06 4.664.771 3.827 2.177c-.793 1.332-.571 2.789-.589 4.218-.017 1.4-.758 2.276-2.153 2.443-.616.074-1.062.28-1.084.975-.021.686.408.943 1.007 1.07 1.706.362 2.233 1.021 2.23 2.74v.692m17.466-8.967h-.018c0-.461.023-.924-.004-1.383-.12-2.073-2.25-4.07-4.195-3.96-.663.037-1.145.318-1.155 1.013-.01.687.434.907 1.108 1.049.619.13 1.307.491 1.702.968.36.435.42 1.153.516 1.762.184 1.18.083 2.456.506 3.533.41 1.045.959 1.791.07 2.918-.906 1.146-.517 2.663-.566 4.032-.052 1.5-.827 2.36-2.324 2.452-.646.04-.953.302-.939.956.015.667.313.987 1.003 1.014 1.743.07 2.846-.936 3.73-2.239.856-1.263.497-2.738.548-4.133.05-1.35.848-2.262 2.196-2.43.633-.079 1.13-.323 1.118-1.052-.013-.72-.474-.956-1.14-1.02-1.291-.127-2.131-1.073-2.155-2.355-.007-.375-.001-.75-.001-1.125"/>
</svg>
