<svg xmlns="http://www.w3.org/2000/svg" width="24" height="24" viewBox="0 0 24 24">
    <path fill="#9EA7D0" fill-rule="evenodd" d="M0 3.562c.043-.21.08-.42.131-.628A3.87 3.87 0 0 1 3.884.001h1.843v5.667H.046C.04 5.567.032 5.463.03 5.358.019 4.837.01 4.315 0 3.793v-.231zm9.163 11.22V.013c.083-.004.164-.013.245-.013 3.625 0 7.25-.002 10.875 0 1.758.002 3.408 1.446 3.647 3.188.038.282.061.568.062.852.004 3.484.002 6.968.002 10.452v.288H9.164zm.003 3.507h5.694c.004.077.012.152.012.226 0 1.743-.002 3.485.004 5.228 0 .182-.036.255-.24.254-1.755-.008-3.51-.005-5.265-.002-.147 0-.222-.023-.221-.2.006-1.796.004-3.592.004-5.389 0-.03.006-.06.012-.117zM5.73 9.193v5.671c-.072.005-.146.014-.22.014-1.745.001-3.491 0-5.237.004-.168 0-.25-.026-.249-.223.007-1.756.004-3.513.005-5.27 0-.06.01-.12.017-.196H5.73zM5.723 24c-1.043-.058-2.08.115-3.092-.222-1.415-.471-2.506-1.843-2.58-3.327-.034-.713-.005-1.428-.005-2.157h5.677V24zm12.584-5.707h5.65c.011.013.03.024.03.035-.01.8.06 1.61-.048 2.396-.259 1.907-1.955 3.228-3.717 3.242-.633.005-1.265.001-1.915.001v-5.674z"/>
</svg>
