<svg xmlns="http://www.w3.org/2000/svg" width="24" height="23" viewBox="0 0 24 23">
    <g fill="none" fill-rule="evenodd">
        <path fill="#5C68A0" d="M22.055.046L13 6.906l1.682-4.047z"/>
        <g fill="#5C68A0">
            <path d="M1.173.046l8.972 6.925-1.6-4.112zM18.8 15.948l-2.41 3.768 5.155 1.449 1.473-5.134zM.218 16.031l1.464 5.134 5.154-1.449-2.4-3.768z"/>
            <path d="M6.555 9.58l-1.437 2.218 5.11.232-.173-5.616zM16.673 9.58l-3.555-3.23L13 12.03l5.11-.232zM6.836 19.716l3.082-1.531-2.654-2.117zM13.31 18.185l3.08 1.531-.426-3.648z"/>
        </g>
        <g fill="#E4E8EA" stroke="#E4E8EB" stroke-linecap="round" stroke-linejoin="round" stroke-width=".5">
            <path d="M16.39 19.716l-3.08-1.531.245 2.051-.028.864zM6.836 19.716L9.7 21.1l-.018-.864.236-2.051z"/>
        </g>
        <path fill="#FFF" d="M9.755 14.713l-2.564-.77L9 13.098zM13.473 14.713l.754-1.615 1.818.845z"/>
        <g fill="#323D71">
            <path d="M6.836 19.716l.446-3.768-2.846.083zM15.945 15.948l.446 3.768 2.409-3.685zM18.11 11.798L13 12.03l.473 2.683.754-1.615 1.818.845zM7.19 13.943L9 13.098l.755 1.615.472-2.683-5.109-.232z"/>
        </g>
        <g fill="#606A9B">
            <path d="M5.118 11.798l2.146 4.27-.073-2.125zM16.045 13.943l-.081 2.125 2.145-4.27zM10.227 12.03l-.472 2.683.6 3.165.127-4.167zM13 12.03l-.245 1.671.118 4.177.6-3.165z"/>
        </g>
        <path fill="#8C95BF" d="M13.473 14.713l-.6 3.165.436.307 2.655-2.117.081-2.125zM7.19 13.943l.074 2.125 2.654 2.117.437-.307-.6-3.165z"/>
        <path fill="#D4D8DA" stroke="#D4D8DA" stroke-linecap="round" stroke-linejoin="round" stroke-width=".5" d="M13.527 21.1l.028-.864-.228-.204H9.9l-.218.204.018.864-2.864-1.384 1 .836 2.037 1.439h3.482l2.036-1.44 1-.835z"/>
        <path fill="#323D71" stroke="#323D71" stroke-linecap="round" stroke-linejoin="round" stroke-width=".5" d="M13.31 18.185l-.437-.307h-2.518l-.437.307-.236 2.051.218-.204h3.427l.228.204z"/>
        <g fill="#323D71">
            <path d="M22.436 7.352l.764-3.787L22.055.046l-8.746 6.628 3.364 2.906L21.427 11l1.046-1.253-.455-.334.727-.678-.554-.446.727-.566zM.027 3.565L.8 7.352l-.49.371.726.566-.554.446.727.678-.454.334L1.8 11l4.755-1.42 3.363-2.906L1.173.046z"/>
        </g>
        <path fill="#6D79B0" d="M21.427 11l-4.754-1.42 1.436 2.218-2.145 4.27 2.836-.037h4.218zM6.555 9.58L1.8 11 .218 16.031h4.218l2.828.037-2.146-4.27zM13 12.03l.31-5.356 1.372-3.815H8.545l1.373 3.815.31 5.356.117 1.69.01 4.158h2.518l.009-4.158z"/>
    </g>
</svg>
