<svg xmlns="http://www.w3.org/2000/svg" width="24" height="24" viewBox="0 0 24 24">
    <path fill="#B4B4E6" fill-rule="evenodd" d="M11.967 12.589l-.167.165-7.767 7.944c-.04.04-.08.08-.111.127a.482.482 0 0 0 .086.633.475.475 0 0 0 .62.016c.07-.055.129-.121.19-.184l7.766-7.946c.05-.05.093-.105.144-.164l-.761-.591m8.545-6.303c.798-.8.799-2.082.002-2.882a2.063 2.063 0 0 0-2.914.002 2.034 2.034 0 0 0 .021 2.899c.807.791 2.09.783 2.89-.02M2.362 20.013l-.07-1.477c-.023-.527.238-.79.774-.779.523.01 1.046.023 1.595.035-.025-.528-.05-1.04-.073-1.55-.028-.593.215-.826.817-.834.507-.006 1.014-.05 1.545-.078-.02-.398-.029-.894-.072-1.386-.03-.343.08-.595.322-.837.939-.94 1.86-1.897 2.794-2.842.112-.113.137-.198.076-.352-1.186-2.992-.377-6.185 2.09-8.271 2.507-2.121 6.387-2.194 8.988-.17 3.072 2.391 3.753 6.542 1.604 9.767-1.805 2.706-5.34 3.852-8.442 2.726-.214-.078-.336-.047-.493.113-3.024 3.102-6.056 6.196-9.082 9.296a.992.992 0 0 1-.653.315c-.98.094-1.958.203-2.937.304-.499.052-.769-.158-.831-.648a398.36 398.36 0 0 1-.304-2.415c-.064-.532.208-.817.74-.83.533-.011 1.064-.056 1.613-.087"/>
</svg>
