<svg xmlns="http://www.w3.org/2000/svg" width="32" height="32" viewBox="0 0 32 32">
    <g fill="none" fill-rule="evenodd">
        <circle cx="16" cy="16" r="16" fill="#FF4500"/>
        <g fill-rule="nonzero">
            <g fill="#FAFAFA">
                <path d="M12.927 16.92l-.661-.012v.013zM19.266 16.92h.66l-.66-.012z"/>
            </g>
            <path fill="#FFF" d="M26.23 14.927a2.617 2.617 0 0 1-1.424 2.335c.006.102.01.204.01.307 0 3.642-4.15 6.605-9.247 6.605-5.1 0-9.248-2.963-9.248-6.605 0-.12.004-.24.015-.356A2.617 2.617 0 0 1 5 14.927a2.645 2.645 0 0 1 4.19-2.142c1.596-1.088 3.71-1.713 5.928-1.79l1.533-3.593a.66.66 0 0 1 .76-.385l3.768.881c.355-.54.964-.898 1.656-.898 1.092 0 1.981.89 1.981 1.982s-.889 1.981-1.981 1.981a1.977 1.977 0 0 1-1.962-1.78l-3.225-.752-1.108 2.6c2.054.154 3.986.765 5.46 1.788a2.609 2.609 0 0 1 1.588-.535 2.645 2.645 0 0 1 2.642 2.643zm-13.964 3.302a1.321 1.321 0 1 0 0-2.642 1.321 1.321 0 0 0 0 2.642zm6.353 3.061a.66.66 0 0 0-.774-1.07 3.874 3.874 0 0 1-4.552 0 .66.66 0 1 0-.774 1.07 5.2 5.2 0 0 0 6.1 0zm.253-3.06a1.321 1.321 0 1 0 0-2.643 1.321 1.321 0 0 0 0 2.642z"/>
            <circle cx=".661" cy=".661" r="1" fill="#FAFAFA" transform="translate(22.945 8.321)"/>
        </g>
    </g>
</svg>
