<svg xmlns="http://www.w3.org/2000/svg" width="118" height="76" viewBox="0 0 118 76">
    <g fill="none" fill-rule="evenodd">
        <path fill="#29A4F5" d="M11.24 26.605c0-1.253.737-2.378 1.856-2.83L41.97 12.122a.051.051 0 0 0 .028-.066c-1.086-2.92-2.936-4.862-5.733-3.73L8.515 19.494c-1.454.588-2.438 2.016-2.511 3.642L6 38.535c0 .473.278.902.71 1.095l21.452 9.612a1.2 1.2 0 0 0 1.69-1.095v-3.71a1.2 1.2 0 0 0-.703-1.093L11.943 35.52a1.2 1.2 0 0 1-.703-1.092v-7.824z"/>
        <path fill="#D1D2DA" d="M40.76 49.395c0 1.253-.737 2.378-1.856 2.83L10.03 63.878a.051.051 0 0 0-.028.066c1.086 2.92 2.936 4.862 5.733 3.73l27.749-11.167c1.454-.588 2.438-2.016 2.511-3.642L46 37.465a1.2 1.2 0 0 0-.71-1.095l-21.452-9.612a1.2 1.2 0 0 0-1.69 1.095v3.71c0 .471.275.898.703 1.093l17.206 7.823a1.2 1.2 0 0 1 .703 1.092v7.824z"/>
        <path fill="#D1D2DA" fill-rule="nonzero" d="M67.531 20.05c0 .324-.028.54-.084.675-.558.242-4.969.35-13.204.35-2.205 0-3.573-.054-4.103-.216-.112-.215-.14-.485-.14-.808 0-.216 0-.458.056-.782.67-.161 3.936-.269 9.77-.269 4.634 0 7.175.08 7.621.216.056.134.084.404.084.835zm-7.174 16.573c-.252.188-.559.27-.95.27-.502 0-.837-.028-1.004-.082-.53-3.691-.894-8.515-1.061-14.443.223-.134.53-.215.977-.215.447 0 .781.027.977.08.112.593.335 2.749.642 6.521.223 3.45.363 6.063.419 7.869zm16.2-5.147c0 .97-.307 1.886-.893 2.722-.642.862-1.396 1.428-2.233 1.697-.224-.323-.363-.539-.42-.673-.055-.108-.195-.324-.39-.647.502-.324.977-.782 1.424-1.374.39-.566.586-1.16.586-1.806 0-1.158-.419-2.236-1.256-3.206.307-.512.698-.863 1.2-1.051 1.312 1.131 1.982 2.56 1.982 4.338zm-3.294-5.2c-.028.323-.14.592-.335.862-.14.27-.251.458-.363.566-.726-.35-1.424-.54-2.121-.54-1.229.028-2.234.513-3.043 1.483-.642.808-.95 1.724-.95 2.775 0 1.024.336 1.967 1.061 2.776.726.754 1.592 1.131 2.652 1.131.503 0 1.005-.08 1.508-.242.279.404.419.862.474 1.401-.53.35-1.2.512-1.982.512-1.702 0-3.07-.512-4.131-1.59-1.089-1.132-1.62-2.479-1.62-4.015 0-1.536.503-2.883 1.508-4.042 1.145-1.212 2.652-1.832 4.495-1.886 1.116 0 2.065.27 2.847.808zm22.78 5.092c-.029 1.294-.14 2.318-.308 3.126-.307 1.455-.558 2.263-.726 2.398-.837 0-1.34-.108-1.563-.35.39-2.695.586-4.42.586-5.228 0-.673-.14-1.266-.363-1.751-.39-.539-.865-.835-1.395-.862-.894.027-2.262.97-4.104 2.829-1.117-2.64-2.29-3.988-3.49-4.015-.837 0-1.674.458-2.512 1.374-.084-.054-.223-.27-.419-.62-.195-.323-.279-.592-.279-.781.95-1.266 2.038-1.913 3.322-1.94 1.536.027 2.848 1.132 3.908 3.314 1.173-1.4 2.345-2.102 3.574-2.128 1.256 0 2.26.538 3.014 1.616.503.809.754 1.806.754 3.018zm-14.908 5.336c-.223.161-.474.215-.81.215-.446 0-.753-.027-.865-.027-.25-.835-.446-2.667-.558-5.524-.084-1.94-.112-3.557-.112-4.877 0-.27 0-.512.028-.754a2.26 2.26 0 0 1 .782-.162c.447 0 .754.027.949.08.168.97.307 2.641.447 5.013.083 2.263.14 4.015.14 5.227v.809zM110 31.476c0 .97-.307 1.886-.893 2.722-.642.862-1.396 1.428-2.234 1.697-.223-.323-.362-.539-.418-.673-.056-.108-.196-.324-.391-.647.502-.324.977-.782 1.424-1.374.39-.566.586-1.16.586-1.806 0-1.158-.419-2.236-1.256-3.206.307-.512.698-.863 1.2-1.051 1.312 1.131 1.982 2.56 1.982 4.338zm-3.294-5.2c-.028.323-.14.592-.335.862-.14.27-.251.458-.363.566-.726-.35-1.424-.54-2.122-.54-1.228.028-2.233.513-3.042 1.483-.642.808-.95 1.724-.95 2.775 0 1.024.336 1.967 1.061 2.776.726.754 1.592 1.131 2.652 1.131.503 0 1.005-.08 1.508-.242.279.404.418.862.474 1.401-.53.35-1.2.512-1.982.512-1.703 0-3.07-.512-4.131-1.59-1.089-1.132-1.62-2.479-1.62-4.015 0-1.536.503-2.883 1.508-4.042 1.145-1.212 2.652-1.832 4.495-1.886 1.116 0 2.065.27 2.847.808z"/>
        <path fill="#29A4F5" fill-rule="nonzero" d="M69.885 42.206c0 .223-.11.501-.302.78-.165.307-.357.502-.632.585-2.828-1.756-5.327-2.648-7.47-2.648-2.856.084-4.339 1.06-4.449 2.9.028.947.687 1.783 1.978 2.508.576.362 2.224 1.087 4.943 2.202 2.39 1.087 3.598 2.62 3.625 4.627-.137 3.01-2.142 4.544-6.014 4.655-2.527-.028-4.669-1.143-6.427-3.4.055-.251.193-.502.44-.725.11-.112.357-.279.714-.474 1.538 1.756 3.295 2.648 5.273 2.648 2.526 0 3.817-.92 3.927-2.76 0-1.365-1.016-2.452-3.048-3.26-2.362-.893-3.983-1.618-4.807-2.175C55.88 46.638 55 45.328 55 43.739c.22-3.122 2.39-4.683 6.509-4.739 1.208 0 2.609.307 4.257.864 1.675.641 3.048 1.422 4.12 2.342zm13.173 4.46c-.22 2.843-.741 5.407-1.51 7.637-.851 2.342-1.565 3.484-2.142 3.484-.495 0-1.483-1.226-2.911-3.679-1.895 2.425-3.021 3.624-3.378 3.624-.412 0-1.071-1.115-2.005-3.345-.879-2.37-1.538-5.018-2.005-7.972.44-.223.961-.363 1.565-.418 0 0 .357 1.393 1.099 4.18.824 2.76 1.4 4.35 1.785 4.795 0 0 .522-.641 1.51-1.923.715-.976 1.236-1.478 1.566-1.478.165 0 .55.446 1.126 1.283.714 1.226 1.18 1.979 1.4 2.202.825-1.505 1.593-4.377 2.335-8.613.604 0 1.126.083 1.565.223zm13.403 10.062c0 .251-.028.53-.028.836-.686.028-1.236.028-1.62.028-.165-1.059-.22-1.756-.22-2.118-1.428 1.505-2.911 2.23-4.449 2.23-1.483 0-2.746-.418-3.79-1.31-1.208-1.143-1.785-2.62-1.785-4.404 0-1.84.604-3.373 1.812-4.544 1.044-.948 2.307-1.422 3.763-1.45 1.456 0 2.636.586 3.515 1.757-.164.557-.44.947-.824 1.226-.851-.753-1.757-1.143-2.691-1.143-.851.028-1.648.39-2.417 1.087-.796.78-1.18 1.812-1.18 3.067 0 1.115.329 2.062 1.043 2.843.686.724 1.538 1.059 2.581 1.059 1.401 0 2.83-.808 4.257-2.425-.22-3.206-.302-5.547-.302-7.024.192-.084.495-.14.879-.196.522 0 .796.056.824.112.192.502.357 2.063.467 4.683.11 2.564.165 4.46.165 5.686zM110 52.296c0 3.624-1.868 5.436-5.575 5.436-.989 0-1.895-.168-2.719-.558 0-.14 0-.39.055-.78 0-.112.055-.39.165-.837.824.251 1.62.363 2.444.363 2.472-.084 3.708-1.31 3.708-3.652 0-1.616-.852-2.843-2.555-3.735-1.07-.446-2.306-.725-3.735-.836-.027-.39-.027-.67-.027-.836 0-.168.027-.474.082-.864 1.923 0 3.626.39 5.109 1.142 2.032 1.171 3.048 2.9 3.048 5.157zm-9.31 2.23c0 2.9-.082 5.687-.192 8.418-.412.028-.687.056-.824.056-.247 0-.55-.056-.88-.111-.109-2.872-.136-5.882-.136-9.115 0-3.234.082-5.826.302-7.777l.824-.028c.164 0 .439.055.851.139.027 2.648.055 5.463.055 8.418z"/>
    </g>
</svg>
