<svg xmlns="http://www.w3.org/2000/svg" width="17" height="24" viewBox="0 0 17 24">
    <path fill="#B4B4E6" fill-rule="evenodd" d="M10.838 7.404c.262-1.7.267-3.32-1.297-3.973-.904-.378-2.275-.286-3.16.17-1.435.739-1.263 2.297-1.024 3.803h5.48zM3.173 10.47c0 2.479-.024 4.777.024 7.074.007.332.274.811.552.962 2.4 1.302 4.798 2.925 7.488.607.255-.22.637-.276.914-.476.307-.22.795-.512.802-.784.062-2.454.036-4.909.036-7.383H3.173zM.007 7.57l2.174-.17C3.192 1.595 4.801-.228 8.617.021c3.284.214 4.93 2.459 5.274 7.332l2.303.243c0 4.07.025 8.142-.044 12.213-.006.353-.57.815-.972 1.02-2.05 1.048-4.116 2.071-6.218 3-.495.22-1.232.23-1.725.013a93.468 93.468 0 0 1-6.213-3.007c-.448-.238-.96-.902-.97-1.38-.078-3.9-.045-7.805-.045-11.886z"/>
</svg>
