<svg xmlns="http://www.w3.org/2000/svg" width="32" height="32" viewBox="0 0 32 32">
    <g fill="none" fill-rule="evenodd">
        <path fill="#55ACEE" d="M0 16C0 7.163 7.163 0 16 0s16 7.163 16 16-7.163 16-16 16S0 24.837 0 16z"/>
        <path fill="#FFF" d="M16.623 13.607l.04.654-.66-.08c-2.405-.307-4.506-1.348-6.29-3.095l-.872-.867-.224.64c-.476 1.428-.172 2.935.819 3.949.528.56.41.64-.502.306-.317-.106-.595-.186-.621-.146-.093.093.224 1.307.475 1.787.344.667 1.044 1.32 1.81 1.707l.648.307-.767.014c-.74 0-.766.013-.687.293.265.867 1.308 1.787 2.471 2.188l.82.28-.714.427a7.439 7.439 0 0 1-3.541.987c-.595.013-1.083.066-1.083.106 0 .134 1.611.88 2.55 1.174 2.814.867 6.157.494 8.667-.987 1.784-1.054 3.567-3.148 4.4-5.175.449-1.08.898-3.055.898-4.002 0-.614.04-.694.78-1.427.436-.427.845-.894.924-1.027.133-.254.12-.254-.554-.027-1.124.4-1.282.347-.727-.254.41-.426.898-1.2.898-1.427 0-.04-.198.027-.422.147-.238.133-.767.333-1.163.453l-.714.227-.647-.44c-.357-.24-.859-.507-1.123-.587-.674-.187-1.705-.16-2.312.054-1.652.6-2.696 2.147-2.577 3.841z"/>
    </g>
</svg>
